<?xml version="1.0" encoding="utf-8"?>
<!-- Generator: Adobe Illustrator 16.0.0, SVG Export Plug-In . SVG Version: 6.00 Build 0)  -->
<!DOCTYPE svg PUBLIC "-//W3C//DTD SVG 1.1//EN" "http://www.w3.org/Graphics/SVG/1.1/DTD/svg11.dtd">
<svg version="1.1" xmlns="http://www.w3.org/2000/svg" xmlns:xlink="http://www.w3.org/1999/xlink" x="0px" y="0px"
	 width="1026.984px" height="641.222px" viewBox="0 0 1026.984 641.222" enable-background="new 0 0 1026.984 641.222"
	 xml:space="preserve">
<g id="Background">
</g>
<g id="Objects">
	<g>
		<polygon fill="#FFFFFF" points="0.757,234.713 86.698,231.251 86.618,231.29 288.251,0.198 288.424,0 288.648,0.134 
			604.503,187.147 604.109,187.16 734.94,98.619 735.129,98.492 735.301,98.64 877.146,220.664 876.923,220.63 1026.984,156.238 
			877.091,221.03 876.969,221.083 876.868,220.996 734.914,99.104 735.273,99.125 604.522,187.787 604.33,187.917 604.129,187.799 
			288.329,0.689 288.726,0.625 86.788,231.443 86.755,231.479 86.707,231.481 		"/>
		<path fill="#FFFFFF" d="M0.868,242.369l83.816-5.729l-0.076,0.038L284.405,9.741l0.163-0.186l0.218,0.113l80.936,42.083
			l40.468,21.042l10.117,5.261l9.799,5.846L445.69,95.62l156.608,93.858l-0.374-0.001l131.577-77.944l0.182-0.107l0.16,0.137
			l17.274,14.688l2.159,1.836l2.261,1.708l4.527,3.405l9.056,6.811l36.223,27.243l36.223,27.244
			c3.072,2.199,5.897,4.723,8.812,7.129l8.695,7.281l17.39,14.563l-0.21-0.036l150.665-55.99l-150.517,56.399l-0.116,0.043
			l-0.095-0.08l-17.398-14.543l-8.699-7.271c-2.916-2.403-5.741-4.922-8.817-7.12l-36.248-27.21l-36.249-27.211l-9.062-6.803
			l-4.53-3.401l-2.263-1.706l-2.162-1.835l-17.3-14.681l0.342,0.029l-131.505,78.068l-0.188,0.111l-0.187-0.112L445.3,96.331
			l-19.571-11.736l-9.793-5.854l-10.111-5.269l-40.442-21.076l-80.886-42.153l0.381-0.072L84.775,236.83l-0.031,0.034l-0.045,0.003
			L0.868,242.369z"/>
		<polygon fill="#FFFFFF" points="0.978,250.025 82.67,242.027 82.598,242.064 280.56,19.284 280.713,19.111 280.924,19.205 
			413.674,78.854 413.695,78.863 413.715,78.875 600.095,191.807 599.742,191.794 732.064,124.446 732.238,124.357 732.388,124.483 
			752.122,141.068 752.093,141.047 843.287,199.783 843.299,199.791 843.309,199.799 875.781,226.276 875.583,226.238 
			1026.851,178.647 875.711,226.654 875.602,226.689 875.512,226.616 843.016,200.17 843.036,200.186 751.787,141.536 
			751.772,141.527 751.758,141.515 732.008,124.948 732.331,124.985 600.071,192.46 599.892,192.552 599.719,192.447 413.32,79.547 
			413.361,79.568 280.667,19.794 281.03,19.715 82.764,242.217 82.734,242.249 82.691,242.254 		"/>
		<polygon fill="#FFFFFF" points="1.089,257.681 80.655,247.416 80.587,247.452 276.714,28.827 276.858,28.666 277.06,28.742 
			410.807,79.533 410.84,79.545 410.871,79.564 597.891,194.136 597.561,194.112 730.628,137.36 730.793,137.29 730.932,137.404 
			750.884,153.981 750.836,153.949 842.074,202.866 842.093,202.876 842.109,202.889 875.099,229.082 874.913,229.042 
			1026.783,189.853 875.02,229.466 874.918,229.492 874.834,229.426 841.82,203.265 841.854,203.288 750.57,154.46 750.546,154.447 
			750.523,154.428 730.556,137.871 730.858,137.915 597.844,194.797 597.672,194.87 597.513,194.772 410.473,80.232 410.537,80.264 
			276.837,29.345 277.182,29.26 80.751,247.604 80.724,247.634 80.683,247.639 		"/>
		<polygon fill="#FFFFFF" points="1.199,265.337 78.641,252.805 78.578,252.84 272.869,38.37 273.003,38.222 273.194,38.281 
			407.939,80.214 407.985,80.228 408.026,80.253 595.688,196.465 595.38,196.431 729.193,150.274 729.349,150.221 729.476,150.326 
			749.645,166.894 749.576,166.853 840.858,205.949 840.887,205.96 840.91,205.979 874.417,231.888 874.244,231.848 
			1026.717,201.058 874.328,232.276 874.233,232.296 874.156,232.236 840.624,206.36 840.676,206.39 749.356,167.383 
			749.319,167.367 749.288,167.342 729.103,150.793 729.385,150.844 595.615,197.132 595.453,197.188 595.307,197.098 
			407.626,80.919 407.714,80.958 273.009,38.895 273.334,38.805 78.739,252.99 78.713,253.019 78.676,253.025 		"/>
		<polygon fill="#FFFFFF" points="1.31,272.993 76.627,258.193 76.568,258.227 269.024,47.914 269.149,47.777 269.328,47.821 
			405.07,80.896 405.13,80.91 405.182,80.943 593.483,198.794 593.2,198.751 727.76,163.19 727.903,163.152 728.02,163.247 
			748.406,179.806 748.315,179.757 839.641,209.033 839.679,209.045 839.711,209.069 873.734,234.694 873.575,234.653 
			1026.649,212.262 873.638,235.087 873.55,235.1 873.478,235.046 839.429,209.455 839.498,209.491 748.145,180.305 
			748.094,180.289 748.053,180.255 727.649,163.716 727.909,163.772 593.385,199.466 593.233,199.506 593.102,199.423 
			404.78,81.604 404.891,81.651 269.181,48.442 269.485,48.35 76.727,258.377 76.702,258.403 76.667,258.41 		"/>
		<polygon fill="#FFFFFF" points="1.42,280.648 74.612,263.583 74.559,263.615 265.18,57.458 265.295,57.333 265.462,57.362 
			402.201,81.58 402.274,81.593 402.337,81.633 591.28,201.122 591.022,201.072 726.326,176.107 726.459,176.083 726.563,176.167 
			747.169,192.718 747.051,192.663 838.421,212.119 838.471,212.129 838.512,212.159 873.053,237.5 872.906,237.459 
			1026.582,223.467 872.946,237.896 872.865,237.904 872.8,237.856 838.233,212.55 838.323,212.59 746.936,193.226 746.87,193.212 
			746.817,193.169 726.196,176.639 726.433,176.699 591.152,201.799 591.015,201.824 590.895,201.749 401.934,82.29 402.069,82.343 
			265.354,57.989 265.636,57.894 74.714,263.764 74.691,263.787 74.66,263.795 		"/>
		<polygon fill="#FFFFFF" points="1.531,288.305 72.598,268.973 72.549,269.002 261.335,67.002 261.441,66.888 261.595,66.905 
			399.331,82.266 399.418,82.275 399.492,82.322 589.076,203.449 588.846,203.395 724.895,189.026 725.014,189.013 725.108,189.088 
			745.931,205.63 745.785,205.571 837.199,215.207 837.262,215.213 837.312,215.249 872.371,240.307 872.238,240.267 
			1026.516,234.672 872.254,240.705 872.182,240.709 872.121,240.666 837.038,215.644 837.15,215.687 745.727,206.144 
			745.646,206.135 745.582,206.084 724.742,189.562 724.956,189.625 588.921,204.13 588.795,204.144 588.688,204.075 
			399.088,82.975 399.248,83.032 261.527,67.534 261.787,67.438 72.702,269.149 72.681,269.172 72.652,269.18 		"/>
		<polygon fill="#FFFFFF" points="1.642,295.961 70.583,274.363 70.54,274.391 257.491,76.546 257.588,76.444 257.729,76.45 
			396.462,82.953 396.562,82.958 396.647,83.013 586.874,205.776 586.668,205.719 723.463,201.945 723.568,201.942 723.652,202.008 
			744.693,218.542 744.519,218.482 835.977,218.297 836.051,218.297 836.112,218.339 871.688,243.112 871.569,243.074 
			1026.448,245.876 871.562,243.515 871.497,243.514 871.443,243.476 835.843,218.739 835.979,218.781 744.52,219.059 
			744.423,219.059 744.346,218.998 723.289,202.486 723.479,202.549 586.688,206.46 586.576,206.463 586.482,206.402 396.241,83.66 
			396.427,83.72 257.7,77.077 257.937,76.981 70.688,274.535 70.67,274.556 70.645,274.563 		"/>
		<polygon fill="#FFFFFF" points="1.752,303.617 68.569,279.753 68.53,279.778 253.647,86.091 253.735,85.999 253.862,85.997 
			393.593,83.643 393.706,83.641 393.802,83.703 584.672,208.103 584.491,208.044 722.031,214.866 722.124,214.871 722.197,214.929 
			743.456,231.453 743.252,231.396 834.754,221.39 834.841,221.381 834.913,221.43 871.006,245.918 870.901,245.882 
			1026.381,257.081 870.871,246.322 870.813,246.318 870.765,246.285 834.647,221.833 834.807,221.873 743.313,231.971 
			743.2,231.983 743.109,231.913 721.835,215.409 722.002,215.471 584.455,208.788 584.357,208.783 584.275,208.729 393.396,84.345 
			393.604,84.405 253.872,86.619 254.087,86.524 68.676,279.922 68.659,279.939 68.636,279.947 		"/>
		<polygon fill="#FFFFFF" points="1.862,311.273 66.555,285.144 66.521,285.166 249.804,95.636 249.884,95.554 249.997,95.545 
			390.724,84.334 390.85,84.324 390.956,84.394 582.469,210.429 582.313,210.372 720.599,227.789 720.679,227.799 720.742,227.849 
			742.219,244.364 741.986,244.312 833.533,224.486 833.631,224.465 833.714,224.52 870.324,248.725 870.232,248.69 
			1026.313,268.286 870.18,249.13 870.129,249.124 870.086,249.096 833.452,224.928 833.633,224.962 742.105,244.881 
			741.978,244.908 741.873,244.828 720.381,228.333 720.525,228.393 582.223,211.115 582.139,211.104 582.067,211.058 
			390.55,85.029 390.782,85.089 250.044,96.159 250.237,96.068 66.663,285.309 66.648,285.323 66.628,285.331 		"/>
		<polygon fill="#FFFFFF" points="1.973,318.929 64.541,290.533 64.512,290.555 245.961,105.181 246.032,105.108 246.133,105.094 
			387.856,85.027 387.994,85.007 388.11,85.084 580.268,212.755 580.136,212.701 719.166,240.713 719.233,240.727 719.288,240.768 
			740.981,257.275 740.722,257.23 832.312,227.584 832.42,227.549 832.515,227.61 869.643,251.53 869.563,251.499 1026.246,279.49 
			869.488,251.937 869.445,251.929 869.408,251.905 832.257,228.022 832.459,228.049 740.896,257.788 740.756,257.834 
			740.637,257.743 718.927,241.258 719.049,241.312 579.991,213.44 579.921,213.426 579.86,213.386 387.705,85.714 387.958,85.771 
			246.215,105.697 246.387,105.611 64.65,290.694 64.637,290.707 64.62,290.715 		"/>
		<polygon fill="#FFFFFF" points="2.083,326.585 62.527,295.925 62.502,295.942 242.118,114.727 242.182,114.662 242.269,114.645 
			384.99,85.721 385.139,85.69 385.265,85.775 578.065,215.08 577.957,215.031 717.732,253.638 717.787,253.652 717.834,253.688 
			739.744,270.186 739.459,270.152 831.094,230.684 831.209,230.634 831.315,230.701 868.961,254.337 868.894,254.309 
			1026.18,290.695 868.797,254.743 868.762,254.734 868.73,254.715 831.062,231.117 831.282,231.134 739.686,270.693 
			739.533,270.759 739.399,270.658 717.473,254.182 717.573,254.231 577.761,215.764 577.703,215.748 577.652,215.714 
			384.859,86.398 385.134,86.452 242.385,115.235 242.536,115.153 62.637,296.08 62.626,296.092 62.612,296.099 		"/>
		<polygon fill="#FFFFFF" points="2.194,334.241 60.513,301.315 60.493,301.33 238.275,124.271 238.331,124.216 238.407,124.196 
			382.125,86.416 382.283,86.375 382.419,86.467 575.863,217.405 575.777,217.362 716.298,266.563 716.342,266.579 716.379,266.607 
			738.508,283.097 738.199,283.073 829.877,233.785 829.999,233.72 830.115,233.792 868.278,257.143 868.224,257.119 
			1026.112,301.9 868.106,257.549 868.078,257.541 868.052,257.525 829.866,234.211 830.104,234.218 738.473,283.598 
			738.311,283.685 738.163,283.574 716.018,267.106 716.099,267.149 575.531,218.087 575.485,218.071 575.444,218.043 
			382.015,87.082 382.308,87.132 238.554,124.771 238.685,124.696 60.625,301.467 60.615,301.476 60.604,301.482 		"/>
		<polygon fill="#FFFFFF" points="2.305,341.896 58.5,306.706 58.484,306.719 234.433,133.817 234.481,133.77 234.546,133.749 
			379.262,87.112 379.428,87.059 379.573,87.157 573.662,219.73 573.596,219.694 714.862,279.49 714.896,279.504 714.925,279.525 
			737.271,296.007 736.94,295.996 828.664,236.887 828.789,236.806 828.916,236.882 867.597,259.949 867.555,259.93 
			1026.045,313.105 867.416,260.354 867.395,260.348 867.373,260.335 828.671,237.306 828.923,237.301 737.257,296.501 
			737.088,296.609 736.926,296.49 714.563,280.031 714.625,280.066 573.303,220.409 573.268,220.394 573.236,220.373 
			379.169,87.766 379.48,87.812 234.721,134.308 234.834,134.239 58.611,306.853 58.604,306.859 58.596,306.865 		"/>
		<polygon fill="#FFFFFF" points="2.415,349.553 56.486,312.098 56.475,312.107 230.59,143.363 230.632,143.322 230.687,143.301 
			376.399,87.809 376.573,87.743 376.727,87.849 571.461,222.055 571.414,222.027 713.425,292.418 713.449,292.43 713.471,292.445 
			736.035,308.917 735.686,308.92 827.451,239.988 827.579,239.893 827.717,239.973 866.914,262.755 866.883,262.74 
			1025.979,324.31 866.727,263.16 866.711,263.153 866.695,263.145 827.476,240.4 827.74,240.385 736.039,309.404 735.865,309.535 
			735.688,309.406 713.108,292.956 713.153,292.983 571.076,222.73 571.051,222.718 571.028,222.702 376.324,88.45 376.651,88.49 
			230.887,143.843 230.983,143.781 56.599,312.238 56.593,312.244 56.587,312.248 		"/>
		<polygon fill="#FFFFFF" points="2.525,357.209 54.473,317.488 54.465,317.495 226.748,152.908 226.783,152.874 226.829,152.854 
			373.539,88.506 373.719,88.427 373.881,88.54 569.26,224.38 569.229,224.361 711.987,305.346 712.002,305.354 712.016,305.363 
			734.799,321.827 734.432,321.843 826.242,243.091 826.37,242.98 826.518,243.063 866.232,265.562 866.213,265.551 
			1025.911,335.515 866.037,265.965 866.027,265.96 866.017,265.954 826.28,243.494 826.556,243.467 734.818,322.307 
			734.641,322.459 734.451,322.322 711.653,305.881 711.683,305.899 568.85,225.051 568.834,225.042 568.82,225.031 373.479,89.134 
			373.82,89.168 227.051,153.377 227.132,153.323 54.585,317.625 54.582,317.628 54.578,317.631 		"/>
		<path fill="#FFFFFF" d="M2.636,364.865l28.584-24.088l14.291-12.043l7.136-6.032l6.807-6.413l54.458-51.31l108.993-102.525
			l0.03-0.028l0.037-0.018L370.68,89.203l0.186-0.091l0.169,0.119l179.317,125.741l11.203,7.867l5.604,3.929l5.767,3.68
			l23.064,14.719l46.129,29.438l46.13,29.438c7.676,4.924,15.402,9.772,23.038,14.758l22.276,15.937l-0.383,0.028l91.854-88.573
			l0.129-0.124l0.155,0.086l24.563,13.562l12.281,6.781l3.07,1.695c1.034,0.544,2.096,1.033,3.143,1.553l6.301,3.073l50.391,24.629
			l100.777,49.271L924.933,297.72l-50.454-24.507l-6.305-3.068c-1.047-0.519-2.109-1.007-3.144-1.551l-3.073-1.692l-12.29-6.771
			l-24.581-13.543l0.283-0.037l-91.772,88.659l-0.18,0.173l-0.202-0.145l-22.277-15.906c-7.641-4.978-15.371-9.82-23.052-14.736
			l-46.156-29.395l-46.156-29.396l-23.078-14.697l-5.77-3.674l-5.608-3.924l-11.21-7.857L370.634,89.818l0.354,0.027
			l-147.774,73.066l0.067-0.046L114.176,265.279l-54.591,51.16l-6.824,6.396l-7.153,6.014l-14.324,12.006L2.636,364.865z"/>
		<polygon fill="#FFFFFF" points="2.747,372.521 219.062,172 219.087,171.977 219.116,171.961 367.822,89.901 368.012,89.796 
			368.188,89.922 732.325,347.647 731.931,347.688 823.827,249.293 823.955,249.156 824.118,249.245 1025.777,357.924 
			823.891,249.683 824.182,249.634 732.373,348.113 732.192,348.307 731.977,348.154 367.789,90.503 368.155,90.523 
			219.376,172.447 219.43,172.408 		"/>
		<polygon fill="#FFFFFF" points="2.594,375.419 215.526,182.03 215.55,182.009 215.578,181.993 366.064,99.274 366.254,99.17 
			366.431,99.297 717.012,351.286 716.628,351.306 824.413,255.785 824.539,255.673 824.688,255.752 1025.777,362.841 
			824.461,256.191 824.734,256.158 717.036,351.779 716.853,351.943 716.652,351.8 366.029,99.874 366.396,99.896 215.835,182.476 
			215.886,182.439 		"/>
		<polygon fill="#FFFFFF" points="2.441,378.316 211.989,192.061 212.012,192.041 212.039,192.026 364.306,108.647 364.498,108.543 
			364.674,108.672 701.697,354.925 701.325,354.927 824.998,262.279 825.121,262.188 825.256,262.259 1025.777,367.758 
			825.031,262.699 825.289,262.679 701.7,355.442 701.516,355.581 701.328,355.445 364.268,109.245 364.636,109.269 
			212.293,192.505 212.342,192.471 		"/>
		<polygon fill="#FFFFFF" points="2.289,381.215 208.453,202.092 208.475,202.072 208.5,202.059 362.548,118.021 362.741,117.916 
			362.917,118.048 686.384,358.563 686.021,358.551 825.583,268.777 825.701,268.701 825.825,268.766 1025.777,372.675 
			825.603,269.208 825.846,269.196 686.366,359.103 686.181,359.222 686.003,359.09 362.507,118.615 362.876,118.642 
			208.752,202.534 208.798,202.501 		"/>
		<polygon fill="#FFFFFF" points="2.136,384.113 204.917,212.122 204.938,212.104 204.962,212.092 360.79,127.396 360.984,127.29 
			361.16,127.423 671.07,362.202 670.716,362.177 826.166,275.276 826.279,275.213 826.395,275.272 1025.777,377.592 
			826.174,275.716 826.402,275.712 671.033,362.76 670.848,362.864 670.678,362.735 360.747,127.986 361.116,128.014 
			205.21,212.562 205.254,212.532 		"/>
		<polygon fill="#FFFFFF" points="1.983,387.012 201.381,222.153 201.401,222.137 201.423,222.124 359.032,136.769 359.227,136.664 
			359.403,136.8 655.758,365.84 655.409,365.805 826.747,281.777 826.855,281.725 826.963,281.779 1025.777,382.508 
			826.744,282.225 826.961,282.226 655.701,366.416 655.516,366.508 655.352,366.381 358.986,137.356 359.356,137.387 
			201.668,222.592 201.71,222.563 		"/>
		<polygon fill="#FFFFFF" points="1.831,389.91 197.845,232.184 197.863,232.169 197.885,232.157 357.274,146.143 357.471,146.037 
			357.646,146.176 640.445,369.479 640.102,369.434 827.327,288.281 827.432,288.236 827.532,288.286 1025.777,387.425 
			827.315,288.732 827.52,288.738 640.37,370.071 640.185,370.152 640.025,370.026 357.225,146.726 357.597,146.759 198.127,232.62 
			198.166,232.595 		"/>
		<polygon fill="#FFFFFF" points="1.678,392.808 194.31,242.214 194.327,242.201 194.346,242.19 355.517,155.517 355.714,155.411 
			355.89,155.552 625.134,373.117 624.792,373.063 827.906,294.784 828.006,294.746 828.101,294.793 1025.777,392.342 
			827.887,295.241 828.081,295.25 625.04,373.726 624.854,373.797 624.699,373.672 355.464,156.096 355.836,156.131 
			194.585,242.648 194.621,242.625 		"/>
		<polygon fill="#FFFFFF" points="1.526,395.706 190.774,252.245 190.79,252.232 190.808,252.224 353.759,164.891 353.958,164.784 
			354.133,164.929 609.822,376.756 609.482,376.694 828.484,301.289 828.579,301.256 828.67,301.301 1025.777,397.259 
			828.458,301.749 828.643,301.76 609.711,377.379 609.524,377.443 609.371,377.316 353.702,165.465 354.077,165.503 
			191.043,252.678 191.076,252.656 		"/>
		<polygon fill="#FFFFFF" points="1.373,398.604 187.239,262.275 187.253,262.265 187.269,262.257 352.001,174.265 352.202,174.157 
			352.377,174.306 594.512,380.396 594.172,380.325 829.062,307.795 829.152,307.767 829.238,307.808 1025.777,402.176 
			829.029,308.258 829.205,308.271 594.384,381.031 594.195,381.09 594.044,380.961 351.94,174.834 352.316,174.875 
			187.502,262.706 187.531,262.688 		"/>
		<polygon fill="#FFFFFF" points="1.221,401.502 183.704,272.307 183.716,272.297 183.73,272.29 350.243,183.64 350.447,183.531 
			350.621,183.684 579.201,384.035 578.86,383.957 829.639,314.3 829.726,314.275 829.807,314.314 1025.777,407.093 829.6,314.766 
			829.768,314.779 579.057,384.684 578.865,384.736 578.716,384.605 350.179,184.203 350.557,184.247 183.96,272.734 
			183.986,272.718 		"/>
		<polygon fill="#FFFFFF" points="1.068,404.4 180.169,282.337 180.18,282.329 180.192,282.322 348.485,193.014 348.691,192.904 
			348.865,193.062 563.891,387.676 563.548,387.589 830.215,320.807 830.298,320.785 830.375,320.822 1025.777,412.01 
			830.172,321.273 830.332,321.289 563.73,388.335 563.536,388.384 563.387,388.249 348.417,193.571 348.797,193.619 
			180.418,282.763 180.441,282.749 		"/>
		<polygon fill="#FFFFFF" points="0.916,407.299 176.634,292.367 176.644,292.361 176.653,292.355 346.728,202.388 346.937,202.277 
			347.109,202.439 548.582,391.316 548.235,391.222 830.79,327.312 830.869,327.295 830.943,327.329 1025.777,416.926 
			830.742,327.781 830.896,327.797 548.404,391.986 548.206,392.031 548.058,391.893 346.655,202.939 347.037,202.991 
			176.877,292.791 176.896,292.78 		"/>
		<polygon fill="#FFFFFF" points="0.763,410.196 173.1,302.398 173.107,302.394 173.115,302.389 344.97,211.762 345.182,211.65 
			345.354,211.818 533.273,394.957 532.922,394.854 831.365,333.819 831.441,333.804 831.513,333.836 1025.777,421.844 
			831.314,334.289 831.461,334.306 533.078,395.639 532.876,395.68 532.727,395.534 344.893,212.307 345.277,212.363 
			173.335,302.819 173.35,302.811 		"/>
		<polygon fill="#FFFFFF" points="0.61,413.095 169.412,312.52 343.212,221.137 343.428,221.023 343.6,221.198 517.966,398.6 
			517.608,398.486 831.939,340.326 832.013,340.312 832.081,340.344 1025.777,426.76 831.885,340.798 832.027,340.814 
			517.754,399.289 517.546,399.328 517.396,399.176 343.13,221.674 343.517,221.735 169.64,312.939 		"/>
		<path fill="#FFFFFF" d="M0.458,415.993l84.512-47.764l42.257-23.882l21.137-11.926l10.57-5.96c3.53-1.974,7.02-4.024,10.627-5.853
			l171.894-90.099l0.22-0.115l0.171,0.183l160.813,171.665l-0.364-0.124l330.219-55.285l0.07-0.013l0.065,0.029l193.128,84.826
			l-193.321-84.371l0.137,0.017L502.429,402.94l-0.214,0.036l-0.15-0.16L341.366,231.04l0.391,0.067L169.782,321.03
			c-3.609,1.824-7.1,3.872-10.632,5.842l-10.575,5.95l-21.152,11.895l-42.321,23.759L0.458,415.993z"/>
		<path fill="#FFFFFF" d="M0.305,418.891l84.66-45.117c28.229-15.021,56.413-30.133,84.704-45.032l170.027-88.856l0.226-0.117
			l0.169,0.191l147.262,165.93l-0.372-0.136l346.106-52.412l0.068-0.011l0.063,0.027l192.559,83.236l-192.75-82.78l0.132,0.017
			l-346.055,52.761l-0.222,0.034l-0.15-0.17l-147.13-166.05l0.395,0.073l-170.111,88.686L0.305,418.891z"/>
		<polygon fill="#FFFFFF" points="0.152,421.789 84.983,379.431 127.398,358.252 148.612,347.677 159.219,342.388 169.731,336.909 
			337.938,249.26 338.169,249.139 338.338,249.341 472.048,409.535 471.666,409.386 833.66,359.848 833.726,359.839 
			833.787,359.865 1025.777,441.511 833.6,360.321 833.726,360.338 471.78,410.242 471.549,410.273 471.398,410.093 337.838,249.77 
			338.237,249.851 169.941,337.333 159.423,342.801 148.811,348.08 127.58,358.622 85.104,379.678 		"/>
		<polygon fill="#FFFFFF" points="0,424.688 85.021,385.216 127.53,365.48 148.791,355.626 154.107,353.164 155.436,352.549 
			156.736,351.873 159.336,350.521 169.739,345.116 336.181,258.634 336.419,258.51 336.584,258.724 456.735,413.19 
			456.353,413.031 834.233,366.355 834.297,366.348 834.355,366.372 1025.777,446.428 834.17,366.829 834.292,366.846 
			456.455,413.881 456.22,413.91 456.073,413.721 336.073,259.133 336.477,259.223 169.942,345.541 159.534,350.937 
			156.932,352.285 155.631,352.959 154.302,353.574 148.983,356.03 127.704,365.85 85.135,385.463 		"/>
		<path fill="#FFFFFF" d="M0.042,432.161l82.604-38.684l41.301-19.341l20.655-9.66l5.165-2.412l1.291-0.604l1.264-0.66l2.528-1.319
			l10.112-5.279l161.793-84.473l0.224-0.117l0.166,0.192l62.905,72.72l31.452,36.359c5.279,6.027,10.397,12.197,15.561,18.327
			l15.471,18.405l-0.359-0.146l293.208-29.538l73.156-8.744l9.15-1.05c1.539-0.146,3.021-0.383,4.626-0.429
			c0.823,0.135,1.533,0.369,2.277,0.597c0.738,0.227,1.467,0.475,2.197,0.717c5.824,1.993,11.582,4.152,17.343,6.31
			c11.513,4.332,22.988,8.763,34.456,13.215c22.924,8.931,45.806,17.973,68.673,27.052c22.857,9.104,45.732,18.165,68.516,27.457
			c-22.811-9.225-45.711-18.218-68.594-27.253c-22.893-9.012-45.801-17.982-68.748-26.85c-11.471-4.439-22.95-8.858-34.465-13.178
			c-5.76-2.149-11.521-4.304-17.333-6.286c-1.444-0.466-2.939-1.012-4.36-1.285c-1.453,0.047-3.021,0.283-4.533,0.432l-9.147,1.059
			l-73.15,8.82l-293.188,29.799l-0.218,0.021l-0.142-0.168l-15.451-18.419c-5.156-6.135-10.268-12.308-15.54-18.341l-31.415-36.391
			l-62.831-72.78l0.389,0.075l-161.885,84.312l-10.118,5.269l-2.529,1.317l-1.265,0.659l-1.292,0.603l-5.167,2.407l-20.675,9.621
			l-41.36,19.222L0.042,432.161z"/>
		<path fill="#FFFFFF" d="M0.084,439.636l80.188-37.896l40.093-18.947l20.05-9.465l5.014-2.364l1.253-0.592l1.228-0.644l2.455-1.289
			l9.822-5.154l157.146-82.462l0.209-0.11l0.165,0.172l65.737,68.166l32.869,34.084c5.554,5.607,10.767,11.544,16.095,17.371
			l15.927,17.535l-0.336-0.135l294.725-23.04c24.46-2.858,48.935-5.771,73.424-8.476l9.189-0.974
			c1.533-0.153,3.065-0.304,4.618-0.401c0.829,0.004,1.576,0.18,2.341,0.333c0.758,0.165,1.51,0.35,2.256,0.547
			c5.967,1.612,11.819,3.563,17.675,5.506c11.697,3.926,23.326,8.051,34.94,12.216c23.215,8.366,46.35,16.958,69.457,25.624
			l34.629,13.084l17.29,6.607c5.751,2.233,11.534,4.391,17.235,6.75c-5.707-2.343-11.497-4.482-17.255-6.698l-17.31-6.555
			l-34.666-12.98c-23.131-8.599-46.292-17.113-69.525-25.42c-11.615-4.152-23.247-8.265-34.942-12.176
			c-5.852-1.936-11.71-3.881-17.649-5.479c-0.743-0.195-1.488-0.378-2.236-0.54c-0.742-0.15-1.511-0.318-2.225-0.32
			c-1.52,0.1-3.053,0.25-4.584,0.405l-9.185,0.982c-24.486,2.729-48.942,5.667-73.422,8.552l-294.717,23.291l-0.2,0.016l-0.137-0.15
			l-15.904-17.546c-5.321-5.83-10.526-11.771-16.074-17.384l-32.832-34.113l-65.665-68.229l0.375,0.061l-157.236,82.306
			l-9.827,5.144l-2.457,1.286l-1.229,0.644l-1.253,0.59l-5.017,2.358l-20.072,9.423l-40.15,18.83L0.084,439.636z"/>
		<path fill="#FFFFFF" d="M0.126,447.11l77.771-37.107l38.885-18.553l19.444-9.271l4.863-2.314c0.816-0.374,1.617-0.778,2.406-1.208
			l2.383-1.257l9.531-5.028l152.499-80.453l0.195-0.103l0.163,0.151l68.567,63.572l34.284,31.787
			c5.828,5.176,11.126,10.917,16.627,16.442l16.388,16.698l-0.313-0.123l296.237-16.538c24.554-2.791,49.131-5.647,73.727-8.2
			c3.075-0.316,6.15-0.623,9.232-0.898c1.538-0.146,3.083-0.264,4.634-0.354c1.598-0.039,3.126,0.27,4.651,0.552
			c6.079,1.247,12.026,2.981,17.971,4.707c11.874,3.511,23.656,7.319,35.417,11.188c23.509,7.78,46.904,15.903,70.261,24.136
			c11.676,4.121,23.34,8.28,34.989,12.479l17.461,6.339l8.715,3.21c2.893,1.1,5.823,2.117,8.663,3.346
			c-2.843-1.22-5.776-2.229-8.672-3.318l-8.725-3.185l-17.479-6.286c-11.662-4.164-23.338-8.287-35.025-12.373
			c-23.379-8.166-46.801-16.203-70.322-23.93c-11.762-3.856-23.546-7.652-35.414-11.147c-5.938-1.718-11.89-3.445-17.933-4.679
			c-1.507-0.279-3.041-0.579-4.539-0.538c-1.534,0.091-3.071,0.209-4.61,0.357c-3.075,0.277-6.151,0.588-9.225,0.907
			c-24.594,2.578-49.145,5.458-73.728,8.278l-296.241,16.778l-0.184,0.011l-0.13-0.133l-16.363-16.707
			c-5.493-5.528-10.781-11.272-16.604-16.454l-34.248-31.817l-68.495-63.636l0.358,0.047l-152.587,80.299l-9.537,5.019l-2.384,1.255
			c-0.79,0.428-1.591,0.832-2.408,1.205l-4.865,2.311l-19.468,9.224l-38.941,18.438L0.126,447.11z"/>
		<path fill="#FFFFFF" d="M0.168,454.585l75.353-36.319l37.676-18.158c12.536-6.098,25.218-11.898,37.434-18.65l147.853-78.443
			l0.182-0.097l0.16,0.132l71.389,58.938l35.695,29.47l4.462,3.685c0.368,0.311,0.751,0.604,1.107,0.93l1.054,0.993l2.108,1.987
			l8.431,7.946l16.861,15.895l-0.29-0.11l297.975-10.041l-0.022,0.002c24.659-2.762,49.317-5.521,74.016-7.928
			c3.09-0.288,6.177-0.586,9.271-0.823c1.545-0.138,3.099-0.221,4.651-0.312c1.583-0.053,3.134,0.146,4.676,0.357
			c6.157,0.937,12.19,2.441,18.212,3.957c12.03,3.094,23.955,6.576,35.853,10.14c23.783,7.173,47.429,14.8,71.024,22.573
			c11.796,3.895,23.576,7.838,35.338,11.836l17.625,6.051l8.794,3.081l4.387,1.571c1.449,0.551,2.939,1.023,4.337,1.692
			c-1.399-0.665-2.891-1.133-4.342-1.679l-4.391-1.558l-8.803-3.054l-17.643-5.997c-11.773-3.963-23.564-7.87-35.371-11.728
			c-23.616-7.708-47.288-15.243-71.079-22.367c-11.897-3.55-23.823-7.019-35.845-10.098c-6.014-1.507-12.049-3.004-18.165-3.927
			c-1.526-0.208-3.068-0.401-4.589-0.349c-1.543,0.094-3.086,0.178-4.631,0.316c-3.089,0.24-6.176,0.541-9.263,0.832
			c-24.688,2.432-49.345,5.218-73.998,8.005l-0.012,0.001h-0.011l-297.968,10.27l-0.168,0.006l-0.123-0.116l-16.834-15.901
			l-8.417-7.951l-2.104-1.987l-1.053-0.994c-0.355-0.325-0.738-0.62-1.105-0.931l-4.458-3.688l-35.658-29.502l-71.317-59.004
			l0.341,0.035l-147.939,78.293l-9.246,4.893c-1.551,0.796-3.06,1.677-4.646,2.401l-4.714,2.261l-18.865,9.025L75.63,418.493
			L0.168,454.585z"/>
		<path fill="#FFFFFF" d="M0.21,462.059l72.935-35.529l36.467-17.764c12.136-5.963,24.403-11.656,36.24-18.223l143.207-76.434
			l0.168-0.09l0.155,0.112l116.728,85.374l0.013,0.01l0.013,0.011l29.594,25.793l-0.267-0.099l299.414-3.527l-0.027,0.002
			c24.783-2.697,49.568-5.377,74.399-7.639c3.105-0.266,6.21-0.539,9.321-0.757c1.553-0.129,3.114-0.191,4.672-0.282
			c1.576-0.074,3.145,0.042,4.7,0.19c6.222,0.664,12.339,1.938,18.437,3.248c12.187,2.686,24.263,5.835,36.308,9.089
			c24.078,6.555,48.001,13.672,71.865,20.974c11.93,3.659,23.841,7.381,35.731,11.171l17.814,5.753l8.884,2.946l4.431,1.512
			l2.206,0.781c0.723,0.282,1.489,0.499,2.159,0.884c-0.671-0.383-1.438-0.597-2.162-0.878l-2.209-0.773l-4.434-1.498l-8.893-2.919
			l-17.831-5.697c-11.9-3.754-23.823-7.438-35.763-11.061c-23.883-7.235-47.831-14.255-71.912-20.767
			c-12.044-3.24-24.119-6.375-36.295-9.045c-6.09-1.302-12.206-2.567-18.385-3.22c-1.545-0.146-3.094-0.259-4.633-0.185
			c-1.552,0.094-3.104,0.156-4.656,0.287c-3.105,0.221-6.209,0.497-9.312,0.766c-24.817,2.288-49.602,4.994-74.38,7.717
			l-0.015,0.002h-0.014l-299.412,3.743l-0.152,0.002l-0.115-0.101l-29.568-25.824l0.026,0.02l-116.641-85.496l0.323,0.023
			l-143.292,76.287l-8.956,4.768c-2.962,1.637-6.019,3.081-9.062,4.553l-18.261,8.828l-36.522,17.653L0.21,462.059z"/>
		<path fill="#FFFFFF" d="M0.252,469.533l70.517-34.74l35.258-17.369c11.735-5.825,23.589-11.412,35.045-17.795l138.562-74.424
			l0.156-0.084l0.149,0.096l120.947,77.861l0.017,0.01l0.016,0.014l30.608,24.646l-0.244-0.088l300.854,2.987l-0.034,0.002
			c24.918-2.629,49.84-5.224,74.811-7.339c3.122-0.251,6.245-0.495,9.373-0.698c1.562-0.115,3.131-0.171,4.696-0.26
			c1.575-0.077,3.152-0.018,4.72,0.081c6.271,0.447,12.463,1.494,18.631,2.609c12.33,2.289,24.554,5.101,36.741,8.038
			c24.366,5.926,48.568,12.512,72.706,19.318c12.066,3.414,24.112,6.901,36.134,10.472c6.011,1.786,12.016,3.593,18.01,5.436
			l8.979,2.804l4.476,1.449l2.228,0.754c0.727,0.278,1.509,0.479,2.17,0.881c-0.662-0.4-1.444-0.598-2.172-0.874l-2.23-0.747
			l-4.479-1.436l-8.988-2.775c-5.999-1.824-12.009-3.612-18.024-5.38c-12.032-3.533-24.087-6.982-36.163-10.358
			c-24.152-6.741-48.38-13.221-72.746-19.109c-12.187-2.925-24.408-5.722-36.725-7.995c-6.159-1.106-12.348-2.146-18.578-2.582
			c-3.111-0.259-6.224,0.005-9.352,0.188c-3.122,0.206-6.243,0.454-9.363,0.708c-24.957,2.141-49.878,4.762-74.79,7.417
			l-0.017,0.002l-0.018-0.001l-300.856-2.782l-0.137-0.001l-0.107-0.087l-30.583-24.678l0.033,0.023l-120.868-77.989l0.305,0.013
			l-138.645,74.281l-8.666,4.643c-2.866,1.592-5.821,3.006-8.765,4.441l-17.656,8.632L70.875,435.01L0.252,469.533z"/>
		<path fill="#FFFFFF" d="M0.294,477.008l68.098-33.951l34.049-16.975c11.335-5.688,22.774-11.167,33.851-17.365l133.918-72.416
			l0.144-0.078l0.143,0.08l125.168,70.348l0.021,0.012l0.02,0.015l31.622,23.499l-0.221-0.078l302.294,9.501l-0.04,0.002
			c25.062-2.554,50.13-5.059,75.248-7.026c3.141-0.242,6.283-0.457,9.428-0.649c3.141-0.157,6.301-0.399,9.462-0.232
			c6.311,0.277,12.568,1.114,18.801,2.045c12.461,1.912,24.825,4.384,37.152,7.005c24.647,5.288,49.131,11.32,73.544,17.61
			c12.203,3.156,24.387,6.396,36.543,9.734c6.078,1.67,12.149,3.364,18.21,5.101l9.076,2.65l4.522,1.381l2.251,0.727l1.117,0.387
			c0.357,0.15,0.769,0.24,1.063,0.489c-0.296-0.249-0.707-0.337-1.064-0.485l-1.119-0.384l-2.252-0.719l-4.526-1.367l-9.084-2.622
			c-6.065-1.717-12.142-3.393-18.225-5.043c-12.166-3.301-24.357-6.503-36.57-9.621c-24.427-6.224-48.933-12.145-73.576-17.401
			c-12.325-2.606-24.687-5.063-37.134-6.96c-6.223-0.923-12.474-1.75-18.749-2.02c-3.135-0.163-6.269,0.081-9.413,0.242
			c-3.141,0.195-6.279,0.414-9.418,0.659c-25.104,1.993-50.17,4.526-75.226,7.105l-0.021,0.002l-0.02-0.001l-302.3-9.307
			l-0.123-0.004l-0.099-0.074l-31.598-23.532l0.04,0.025l-125.094-70.481l0.286,0.003l-134,72.276
			c-11.079,6.198-22.544,11.627-33.895,17.283l-34.102,16.871L0.294,477.008z"/>
		<path fill="#FFFFFF" d="M0.336,484.482l65.679-33.161l32.839-16.58c10.934-5.552,21.961-10.919,32.657-16.938l129.276-70.407
			l0.132-0.072l0.135,0.065l129.387,62.835l0.025,0.012l0.023,0.017l32.636,22.352l-0.199-0.067l303.734,16.015l-0.045,0.001
			c25.216-2.472,50.438-4.879,75.711-6.707c3.159-0.229,6.321-0.417,9.483-0.605c3.163-0.14,6.333-0.364,9.512-0.268
			c6.349,0.152,12.663,0.797,18.954,1.557c12.581,1.561,25.08,3.694,37.543,5.996c24.92,4.648,49.682,10.107,74.371,15.857
			c12.342,2.888,24.663,5.869,36.957,8.961c6.146,1.547,12.287,3.121,18.414,4.744c3.064,0.812,6.125,1.637,9.178,2.488l4.572,1.308
			l2.273,0.695l1.129,0.376c0.357,0.149,0.78,0.23,1.064,0.494c-0.285-0.263-0.707-0.343-1.066-0.49l-1.129-0.372l-2.275-0.688
			l-4.575-1.294c-3.056-0.842-6.119-1.656-9.185-2.459c-6.133-1.604-12.277-3.158-18.428-4.687
			c-12.303-3.053-24.633-5.996-36.982-8.844c-24.701-5.686-49.484-11.025-74.398-15.648c-12.459-2.287-24.954-4.407-37.521-5.951
			c-6.282-0.752-12.589-1.389-18.906-1.532c-3.156-0.094-6.312,0.133-9.474,0.276c-3.159,0.191-6.318,0.383-9.477,0.615
			c-25.259,1.854-50.479,4.289-75.687,6.787l-0.022,0.002l-0.023-0.001l-303.743-15.832l-0.108-0.006l-0.091-0.062l-32.612-22.387
			l0.047,0.027L260.799,347.93l0.267-0.006l-129.355,70.272c-10.7,6.012-21.755,11.326-32.703,16.851l-32.891,16.479L0.336,484.482z
			"/>
		<path fill="#FFFFFF" d="M0.378,491.957l63.259-32.371l31.629-16.185c10.531-5.419,21.15-10.666,31.462-16.509l124.634-68.4
			l0.121-0.066l0.127,0.053l133.607,55.322l0.028,0.012l0.026,0.017l33.65,21.205l-0.177-0.059l305.174,22.529l-0.05,0.001
			c12.688-1.21,25.379-2.361,38.077-3.444c12.699-1.078,25.401-2.112,38.121-2.937c3.179-0.217,6.362-0.386,9.544-0.563
			c3.182-0.134,6.369-0.339,9.564-0.293c6.385,0.056,12.75,0.532,19.097,1.136c12.692,1.237,25.319,3.04,37.911,5.025
			c25.183,4.01,50.222,8.876,75.188,14.064c12.48,2.607,24.941,5.316,37.374,8.148c6.216,1.418,12.426,2.865,18.622,4.367
			c3.099,0.752,6.194,1.518,9.281,2.312c1.544,0.399,3.086,0.805,4.622,1.23l2.299,0.662l1.14,0.363l0.562,0.204
			c0.172,0.085,0.4,0.126,0.504,0.294c-0.104-0.168-0.332-0.209-0.505-0.293l-0.563-0.201l-1.14-0.359l-2.301-0.654
			c-1.537-0.422-3.081-0.822-4.625-1.217c-3.09-0.785-6.188-1.541-9.287-2.283c-6.201-1.482-12.415-2.91-18.636-4.309
			c-12.44-2.793-24.907-5.463-37.396-8.029c-24.976-5.123-50.033-9.865-75.207-13.855c-12.589-1.972-25.212-3.76-37.89-4.981
			c-6.338-0.595-12.694-1.063-19.054-1.112c-3.178-0.042-6.354,0.165-9.536,0.303c-3.179,0.181-6.358,0.353-9.535,0.573
			c-12.713,0.838-25.412,1.885-38.107,2.977c-12.694,1.097-25.385,2.263-38.068,3.485l-0.025,0.002l-0.025-0.002L418.69,435.762
			l-0.095-0.007l-0.082-0.052l-33.627-21.241l0.054,0.028l-133.549-55.466l0.248-0.014l-124.71,68.269
			c-10.324,5.822-20.965,11.029-31.511,16.418l-31.68,16.086L0.378,491.957z"/>
		<path fill="#FFFFFF" d="M0.42,499.432l60.839-31.58l30.418-15.789c10.128-5.285,20.337-10.414,30.268-16.08l119.993-66.395
			l0.11-0.061l0.119,0.041l137.827,47.81l0.032,0.011l0.03,0.018l34.664,20.059l-0.155-0.05l306.615,29.043h-0.057
			c12.773-1.164,25.552-2.26,38.335-3.288c12.783-1.026,25.573-1.987,38.377-2.76c6.404-0.353,12.8-0.779,19.228-0.838
			c6.423-0.016,12.835,0.317,19.233,0.777c12.797,0.944,25.546,2.425,38.264,4.1c25.436,3.379,50.745,7.636,75.986,12.24
			c12.619,2.315,25.218,4.74,37.791,7.297c6.286,1.281,12.566,2.594,18.833,3.968c3.134,0.688,6.264,1.39,9.386,2.127
			c1.562,0.369,3.121,0.747,4.675,1.146c0.776,0.201,1.552,0.406,2.323,0.627c0.386,0.109,0.771,0.225,1.152,0.349
			c0.19,0.062,0.381,0.127,0.567,0.2c0.172,0.085,0.409,0.124,0.501,0.302c-0.093-0.177-0.33-0.216-0.501-0.3
			c-0.188-0.072-0.378-0.137-0.568-0.198c-0.382-0.123-0.767-0.236-1.153-0.346c-0.771-0.218-1.548-0.421-2.325-0.618
			c-1.555-0.395-3.115-0.768-4.677-1.132c-3.125-0.727-6.258-1.419-9.393-2.097c-6.271-1.354-12.554-2.646-18.844-3.908
			c-12.58-2.517-25.186-4.901-37.811-7.177c-25.249-4.539-50.575-8.666-76.001-12.032c-12.714-1.659-25.457-3.125-38.24-4.055
			c-6.392-0.452-12.795-0.777-19.197-0.755c-6.396,0.065-12.802,0.499-19.198,0.857c-12.797,0.786-25.583,1.761-38.363,2.802
			c-12.779,1.042-25.556,2.151-38.324,3.329l-0.027,0.002l-0.028-0.002l-306.63-28.883l-0.083-0.008l-0.072-0.042l-34.643-20.096
			l0.062,0.029l-137.777-47.959l0.229-0.02l-120.068,66.265c-9.948,5.634-20.174,10.731-30.318,15.985l-30.469,15.694L0.42,499.432z
			"/>
		<path fill="#FFFFFF" d="M0.463,506.905l58.417-30.788l29.208-15.394c9.726-5.151,19.523-10.165,29.075-15.646l115.352-64.393
			l0.101-0.056l0.11,0.031l142.047,40.297l0.036,0.01l0.034,0.018l35.678,18.911l-0.133-0.042l308.056,35.558l-0.062-0.001
			c25.728-2.197,51.468-4.233,77.248-5.711c6.448-0.329,12.889-0.716,19.354-0.817c6.462-0.07,12.92,0.14,19.369,0.472
			c12.897,0.682,25.762,1.854,38.6,3.224c25.679,2.761,51.255,6.395,76.768,10.395c12.756,2.013,25.493,4.14,38.207,6.407
			c6.355,1.137,12.706,2.307,19.044,3.543c3.169,0.62,6.335,1.255,9.493,1.929c1.578,0.338,3.156,0.685,4.728,1.056
			c0.786,0.186,1.57,0.378,2.35,0.587c0.391,0.104,0.779,0.214,1.165,0.334c0.192,0.061,0.385,0.124,0.573,0.195
			c0.171,0.085,0.416,0.123,0.497,0.31c-0.081-0.187-0.326-0.224-0.497-0.308c-0.189-0.071-0.382-0.134-0.574-0.194
			c-0.386-0.119-0.775-0.227-1.166-0.33c-0.78-0.206-1.565-0.396-2.352-0.579c-1.572-0.366-3.15-0.708-4.729-1.04
			c-3.16-0.664-6.328-1.289-9.498-1.898c-6.342-1.217-12.695-2.367-19.055-3.482c-12.719-2.228-25.463-4.312-38.222-6.285
			c-25.521-3.936-51.11-7.434-76.777-10.187c-25.653-2.624-51.48-4.932-77.248-2.791c-25.768,1.505-51.506,3.569-77.224,5.794
			l-0.031,0.003l-0.03-0.004l-308.072-35.407l-0.071-0.008l-0.063-0.034l-35.658-18.949l0.069,0.028l-142.004-40.451l0.211-0.024
			l-115.429,64.258c-9.568,5.452-19.382,10.436-29.125,15.556l-29.257,15.303L0.463,506.905z"/>
		<path fill="#FFFFFF" d="M0.505,514.38L56.5,484.384l27.998-14.998c9.323-5.016,18.709-9.915,27.882-15.214l110.712-62.391
			l0.091-0.052l0.103,0.023l146.267,32.783l0.04,0.009l0.037,0.019l36.692,17.764l-0.113-0.034l309.497,42.072l-0.065-0.002
			c25.914-2.092,51.845-3.982,77.808-5.368c25.97-1.871,52.027-0.296,77.919,1.812c25.912,2.16,51.748,5.16,77.527,8.536
			c12.89,1.7,25.764,3.515,38.617,5.479c6.426,0.982,12.847,2.004,19.256,3.094c3.204,0.547,6.406,1.111,9.6,1.717
			c1.598,0.303,3.192,0.617,4.782,0.958c0.795,0.171,1.588,0.349,2.377,0.544c0.395,0.098,0.788,0.201,1.178,0.318
			c0.195,0.058,0.389,0.118,0.579,0.19c0.172,0.083,0.424,0.119,0.496,0.315c-0.073-0.195-0.324-0.23-0.496-0.313
			c-0.191-0.071-0.385-0.132-0.58-0.189c-0.391-0.114-0.783-0.217-1.179-0.313c-0.789-0.193-1.583-0.368-2.378-0.537
			c-1.591-0.336-3.187-0.645-4.785-0.942c-3.195-0.595-6.398-1.149-9.604-1.686c-6.412-1.07-12.836-2.07-19.265-3.033
			c-12.857-1.923-25.736-3.696-38.629-5.355c-25.786-3.312-51.632-6.171-77.534-8.328c-25.894-2.079-51.907-3.624-77.854-1.726
			c-25.952,1.413-51.88,3.333-77.785,5.452l-0.033,0.003l-0.033-0.005l-309.515-41.932l-0.06-0.008l-0.054-0.026l-36.673-17.804
			l0.076,0.027L223.166,392.3l0.193-0.028l-110.792,62.252c-9.189,5.271-18.59,10.14-27.93,15.127l-28.045,14.91L0.505,514.38z"/>
		<path fill="#FFFFFF" d="M0.547,521.854L54.12,492.65l26.786-14.602c8.921-4.881,17.895-9.665,26.689-14.781l106.073-60.39
			l0.083-0.047l0.094,0.016l150.487,25.271l0.043,0.008l0.04,0.018l37.705,16.616l-0.092-0.026l310.938,48.586l-0.07-0.002
			c26.111-1.972,52.238-3.72,78.393-5.021c6.541-0.295,13.076-0.626,19.627-0.787c6.548-0.146,13.098-0.126,19.645-0.009
			c13.094,0.238,26.176,0.846,39.245,1.632c26.14,1.582,52.227,3.937,78.27,6.673c13.021,1.379,26.029,2.869,39.02,4.513
			c6.495,0.824,12.985,1.685,19.466,2.621c3.24,0.47,6.478,0.957,9.708,1.49c1.615,0.268,3.229,0.545,4.837,0.853
			c0.804,0.155,1.605,0.316,2.404,0.499c0.399,0.09,0.797,0.188,1.191,0.299c0.197,0.056,0.394,0.114,0.586,0.185
			c0.097,0.033,0.191,0.074,0.284,0.118c0.08,0.05,0.207,0.092,0.208,0.205c-0.002-0.113-0.129-0.154-0.209-0.204
			c-0.093-0.043-0.187-0.084-0.284-0.117c-0.192-0.069-0.389-0.128-0.586-0.183c-0.395-0.109-0.792-0.206-1.192-0.295
			c-0.799-0.181-1.602-0.339-2.405-0.491c-1.609-0.303-3.224-0.575-4.839-0.837c-3.231-0.523-6.471-0.999-9.712-1.459
			c-6.482-0.917-12.976-1.756-19.472-2.56c-12.994-1.602-26.007-3.051-39.03-4.389c-26.047-2.667-52.14-4.886-78.271-6.465
			c-26.126-1.535-52.326-2.439-78.464-0.75c-26.145,1.33-52.269,3.106-78.372,5.105l-0.035,0.003l-0.035-0.005l-310.958-48.457
			l-0.048-0.008l-0.044-0.02l-37.688-16.658l0.083,0.025l-150.459-25.436l0.177-0.031l-106.155,60.248
			c-8.81,5.088-17.799,9.844-26.735,14.697L54.21,492.82L0.547,521.854z"/>
		<path fill="#FFFFFF" d="M0.589,529.329l51.149-28.411l25.574-14.205c8.519-4.746,17.08-9.414,25.496-14.348l101.436-58.391
			l0.075-0.043l0.086,0.01l154.707,17.758l0.045,0.006l0.043,0.018l38.719,15.469l-0.072-0.021l312.379,55.102l-0.075-0.004
			c26.318-1.833,52.649-3.442,79.002-4.666c6.59-0.287,13.176-0.594,19.772-0.778c6.595-0.176,13.192-0.226,19.788-0.201
			c13.192,0.057,26.381,0.409,39.562,0.92c26.361,1.027,52.692,2.736,78.989,4.814c13.148,1.049,26.289,2.203,39.415,3.511
			c6.562,0.656,13.122,1.351,19.673,2.122c3.274,0.388,6.548,0.795,9.814,1.249c1.633,0.229,3.265,0.469,4.892,0.74
			c0.813,0.137,1.626,0.28,2.433,0.448c0.404,0.083,0.807,0.174,1.206,0.278c0.199,0.054,0.397,0.109,0.593,0.179
			c0.098,0.033,0.192,0.073,0.286,0.118c0.08,0.05,0.208,0.096,0.202,0.212c0.006-0.116-0.122-0.162-0.203-0.211
			c-0.093-0.045-0.188-0.084-0.286-0.117c-0.194-0.068-0.394-0.124-0.593-0.177c-0.399-0.103-0.803-0.192-1.206-0.274
			c-0.808-0.165-1.62-0.307-2.435-0.44c-1.627-0.267-3.26-0.501-4.893-0.725c-3.269-0.443-6.542-0.841-9.818-1.218
			c-6.553-0.751-13.113-1.424-19.677-2.059c-13.129-1.266-26.272-2.379-39.422-3.386c-26.301-2.007-52.634-3.583-78.988-4.606
			c-13.177-0.496-26.36-0.835-39.546-0.877c-6.592-0.018-13.184,0.04-19.772,0.223c-6.587,0.191-13.175,0.506-19.762,0.8
			c-26.345,1.252-52.673,2.89-78.981,4.753l-0.039,0.002l-0.037-0.007l-312.4-54.98l-0.038-0.007l-0.035-0.015l-38.703-15.512
			l0.089,0.022l-154.688-17.928l0.161-0.033l-101.52,58.244c-8.432,4.907-17.007,9.549-25.541,14.268L51.826,501.08L0.589,529.329z"
			/>
		<path fill="#FFFFFF" d="M0.631,536.803l48.724-27.616l24.362-13.809c8.116-4.611,16.264-9.163,24.302-13.915l96.801-56.392
			l0.068-0.039l0.079,0.005l158.925,10.246l0.049,0.003l0.046,0.017l39.732,14.322l-0.053-0.016l313.821,61.617l-0.079-0.005
			c26.532-1.683,53.075-3.151,79.635-4.31c26.556-1.345,53.163-1.385,79.738-0.878c26.579,0.497,53.146,1.561,79.692,2.966
			c13.271,0.713,26.54,1.519,39.797,2.477c6.629,0.481,13.255,0.998,19.875,1.597c3.309,0.302,6.617,0.621,9.92,0.993
			c1.65,0.187,3.301,0.386,4.946,0.619c0.822,0.117,1.645,0.243,2.462,0.393c0.408,0.076,0.816,0.158,1.22,0.256
			c0.202,0.051,0.403,0.104,0.6,0.172c0.099,0.033,0.195,0.071,0.289,0.118c0.081,0.049,0.21,0.101,0.196,0.218
			c0.014-0.117-0.115-0.168-0.196-0.217c-0.094-0.046-0.19-0.084-0.29-0.117c-0.196-0.066-0.397-0.119-0.6-0.17
			c-0.404-0.097-0.812-0.177-1.221-0.252c-0.817-0.146-1.64-0.27-2.462-0.385c-1.646-0.229-3.296-0.422-4.948-0.604
			c-3.303-0.361-6.611-0.67-9.922-0.961c-6.621-0.578-13.248-1.072-19.877-1.533c-13.26-0.916-26.529-1.68-39.803-2.349
			c-26.547-1.332-53.113-2.268-79.688-2.761c-26.573-0.479-53.16-0.408-79.706,0.965c-26.553,1.188-53.094,2.686-79.618,4.396
			l-0.04,0.003l-0.04-0.008l-313.842-61.505l-0.027-0.006l-0.026-0.01l-39.718-14.365l0.094,0.02l-158.915-10.42l0.146-0.034
			l-96.888,56.241c-8.053,4.726-16.215,9.253-24.346,13.838L49.44,509.341L0.631,536.803z"/>
		<path fill="#FFFFFF" d="M0.673,544.277l46.298-26.821l23.148-13.411c7.713-4.477,15.448-8.913,23.109-13.481l92.168-54.396
			l0.062-0.036l0.071,0.001l163.146,2.734h0.051l0.048,0.016l40.747,13.176l-0.035-0.01l315.263,68.132l-0.083-0.007
			c26.755-1.515,53.518-2.844,80.291-3.951c26.771-1.221,53.575-1.635,80.37-1.627c26.796-0.008,53.591,0.418,80.376,1.139
			c13.393,0.368,26.784,0.816,40.169,1.408c6.692,0.299,13.383,0.632,20.069,1.047c3.343,0.209,6.686,0.438,10.023,0.721
			c1.668,0.143,3.336,0.297,5,0.489c0.832,0.097,1.663,0.202,2.49,0.333c0.414,0.068,0.827,0.14,1.235,0.231
			c0.204,0.048,0.408,0.098,0.606,0.163c0.1,0.034,0.199,0.07,0.293,0.118c0.081,0.048,0.211,0.105,0.189,0.225
			c0.021-0.119-0.108-0.176-0.19-0.224c-0.094-0.048-0.192-0.084-0.292-0.117c-0.199-0.064-0.403-0.114-0.607-0.161
			c-0.408-0.091-0.821-0.16-1.235-0.227c-0.827-0.129-1.659-0.231-2.491-0.326c-1.664-0.187-3.332-0.336-5.001-0.474
			c-3.339-0.271-6.681-0.489-10.024-0.688c-6.687-0.395-13.379-0.705-20.071-0.982c-13.386-0.549-26.776-0.955-40.169-1.28
			c-26.785-0.645-53.578-0.945-80.37-0.935c-26.792,0.022-53.583,0.465-80.347,1.715c-26.77,1.137-53.53,2.496-80.278,4.04
			l-0.043,0.003l-0.041-0.01l-315.284-68.029l-0.018-0.004l-0.018-0.006l-40.733-13.22l0.098,0.017L185.52,436.65l0.132-0.034
			l-92.258,54.241c-7.674,4.544-15.423,8.956-23.15,13.408l-23.19,13.337L0.673,544.277z"/>
		<path fill="#FFFFFF" d="M0.715,551.752l43.87-26.025c14.614-8.691,29.267-17.316,43.85-26.062l87.538-52.399l0.055-0.033
			l0.064-0.002l167.365-4.779l0.052-0.002l0.051,0.016l22.154,6.381l11.077,3.19l5.539,1.595l2.769,0.798
			c0.929,0.241,1.869,0.445,2.802,0.67l44.88,10.546l89.754,21.113l179.473,42.377l-0.087-0.008l80.976-3.52
			c13.494-0.627,26.996-1.107,40.5-1.475c13.504-0.379,27.01-0.675,40.516-0.914c27.013-0.483,54.03-0.687,81.047-0.661
			c13.508,0.02,27.017,0.101,40.523,0.312c6.753,0.109,13.506,0.247,20.257,0.47c3.375,0.112,6.75,0.244,10.122,0.432
			c1.687,0.096,3.372,0.203,5.054,0.351c0.841,0.074,1.682,0.158,2.519,0.27c0.419,0.058,0.837,0.118,1.251,0.204
			c0.206,0.043,0.413,0.091,0.614,0.153c0.101,0.033,0.201,0.068,0.295,0.117c0.082,0.048,0.211,0.11,0.184,0.231
			c0.027-0.121-0.102-0.183-0.185-0.23c-0.094-0.049-0.194-0.083-0.294-0.116c-0.202-0.062-0.408-0.109-0.615-0.151
			c-0.414-0.084-0.832-0.144-1.25-0.199c-0.838-0.109-1.679-0.191-2.52-0.263c-1.683-0.142-3.368-0.244-5.055-0.334
			c-3.372-0.177-6.747-0.298-10.122-0.399c-6.751-0.2-13.504-0.317-20.257-0.404c-13.507-0.169-27.014-0.207-40.521-0.184
			c-27.016,0.053-54.028,0.378-81.039,0.865c-13.504,0.254-27.008,0.565-40.51,0.959c-13.502,0.381-26.999,0.877-40.492,1.519
			l-80.966,3.608l-0.045,0.002l-0.042-0.01l-179.529-42.183L432.59,466.41l-44.871-10.595c-0.934-0.226-1.872-0.431-2.802-0.673
			l-2.77-0.801l-5.54-1.603l-11.078-3.204l-22.157-6.407l0.102,0.013l-167.37,4.596l0.12-0.034l-87.63,52.241
			c-14.61,8.699-29.289,17.277-43.93,25.922L0.715,551.752z"/>
		<path fill="#FFFFFF" d="M0.757,559.227l165.791-100.864l0.05-0.03l0.059-0.004l171.584-12.292l0.054-0.004l0.052,0.014
			l180.483,45.933l180.438,46.111l-0.09-0.01c54.449-2.237,108.903-4.322,163.366-6.181c27.231-0.934,54.466-1.755,81.705-2.432
			c13.62-0.333,27.24-0.628,40.862-0.811c6.812-0.088,13.623-0.149,20.436-0.132c3.406,0.011,6.812,0.04,10.217,0.127
			c1.702,0.045,3.404,0.103,5.105,0.201c0.85,0.051,1.699,0.11,2.546,0.201c0.424,0.046,0.847,0.099,1.266,0.174
			c0.21,0.038,0.419,0.081,0.623,0.144c0.102,0.029,0.202,0.066,0.298,0.114c0.086,0.048,0.203,0.122,0.176,0.238
			c0.027-0.116-0.09-0.189-0.176-0.237c-0.096-0.048-0.196-0.084-0.299-0.114c-0.204-0.061-0.413-0.103-0.623-0.141
			c-0.419-0.074-0.842-0.125-1.266-0.17c-0.847-0.088-1.696-0.145-2.547-0.192c-1.7-0.094-3.402-0.146-5.104-0.186
			c-3.405-0.075-6.811-0.094-10.216-0.094c-6.812,0.003-13.623,0.087-20.434,0.197c-13.621,0.226-27.24,0.564-40.857,0.94
			c-27.235,0.758-54.466,1.696-81.696,2.635c-54.459,1.918-108.911,4.062-163.355,6.36l-0.046,0.002l-0.045-0.012l-180.487-45.913
			l-180.443-46.092l0.105,0.01l-171.597,12.104l0.108-0.034L0.757,559.227z"/>
		<path fill="#FFFFFF" d="M0.757,563.758l166.933-95.275l0.048-0.027l0.055-0.004l171.268-11.614l0.051-0.003l0.049,0.012
			l180.423,43.375l180.381,43.556l-0.086-0.009c54.342-2.111,108.689-4.08,163.043-5.833c27.178-0.882,54.358-1.654,81.542-2.29
			c13.592-0.313,27.186-0.591,40.78-0.762c6.797-0.082,13.595-0.141,20.393-0.123c3.398,0.012,6.798,0.039,10.196,0.121
			c1.698,0.043,3.397,0.098,5.095,0.191c0.848,0.048,1.696,0.104,2.542,0.189c0.423,0.043,0.846,0.093,1.265,0.164
			c0.209,0.035,0.418,0.075,0.623,0.134c0.103,0.027,0.203,0.062,0.301,0.107c0.086,0.044,0.21,0.11,0.186,0.229
			c0.024-0.118-0.1-0.184-0.187-0.228c-0.097-0.045-0.198-0.079-0.3-0.106c-0.205-0.058-0.414-0.097-0.624-0.132
			c-0.419-0.07-0.841-0.118-1.265-0.16c-0.846-0.082-1.693-0.137-2.542-0.182c-1.697-0.088-3.396-0.137-5.095-0.174
			c-3.398-0.071-6.797-0.088-10.195-0.088c-6.798,0.004-13.595,0.083-20.392,0.188c-13.593,0.214-27.185,0.535-40.774,0.892
			c-27.182,0.718-54.357,1.606-81.533,2.493c-54.352,1.813-108.696,3.842-163.033,6.014l-0.044,0.002l-0.043-0.011l-180.427-43.356
			L339.006,457.51l0.1,0.009l-171.28,11.427l0.103-0.031L0.757,563.758z"/>
		<path fill="#FFFFFF" d="M0.757,568.289l168.076-89.687l0.045-0.024l0.052-0.003l170.951-10.937l0.048-0.004l0.047,0.011
			l180.362,40.818l180.322,40.999l-0.08-0.007c54.234-1.986,108.475-3.837,162.721-5.485c27.123-0.83,54.249-1.555,81.378-2.15
			c13.565-0.293,27.13-0.553,40.697-0.712c6.783-0.077,13.567-0.131,20.352-0.113c3.392,0.011,6.784,0.037,10.175,0.115
			c1.695,0.04,3.391,0.092,5.085,0.18c0.847,0.045,1.693,0.099,2.538,0.179c0.422,0.04,0.844,0.087,1.263,0.153
			c0.21,0.033,0.419,0.071,0.624,0.125c0.103,0.026,0.204,0.058,0.302,0.101c0.087,0.042,0.218,0.1,0.197,0.218
			c0.02-0.118-0.111-0.175-0.197-0.217c-0.098-0.043-0.2-0.073-0.303-0.099c-0.205-0.054-0.414-0.092-0.624-0.124
			c-0.419-0.064-0.84-0.11-1.263-0.149c-0.845-0.077-1.69-0.128-2.538-0.17c-1.693-0.083-3.389-0.129-5.084-0.164
			c-3.392-0.066-6.783-0.082-10.176-0.082c-6.783,0.005-13.566,0.08-20.35,0.179c-13.564,0.202-27.129,0.506-40.692,0.843
			c-27.126,0.678-54.248,1.518-81.37,2.353c-54.243,1.708-108.48,3.619-162.711,5.666l-0.041,0.001l-0.041-0.009l-180.366-40.8
			l-180.326-40.981l0.094,0.007l-170.962,10.749l0.098-0.027L0.757,568.289z"/>
		<path fill="#FFFFFF" d="M0.757,572.82l169.218-84.098l0.043-0.021l0.049-0.003l170.634-10.259l0.044-0.003l0.044,0.009
			l180.302,38.262l180.265,38.443l-0.076-0.007c54.128-1.86,108.261-3.595,162.399-5.138c27.068-0.777,54.141-1.453,81.215-2.009
			c13.537-0.273,27.075-0.516,40.614-0.663c6.77-0.071,13.54-0.121,20.31-0.104c3.385,0.01,6.771,0.035,10.154,0.109
			c1.692,0.037,3.385,0.086,5.075,0.168c0.845,0.043,1.69,0.093,2.533,0.168c0.422,0.037,0.843,0.081,1.262,0.144
			c0.21,0.03,0.418,0.066,0.624,0.116c0.103,0.025,0.205,0.053,0.304,0.094c0.087,0.039,0.222,0.088,0.208,0.206
			c0.014-0.118-0.122-0.166-0.209-0.206c-0.098-0.039-0.2-0.067-0.303-0.092c-0.207-0.049-0.416-0.084-0.625-0.114
			c-0.419-0.061-0.84-0.103-1.262-0.14c-0.843-0.072-1.688-0.119-2.533-0.159c-1.69-0.077-3.383-0.12-5.074-0.152
			c-3.385-0.062-6.77-0.077-10.154-0.076c-6.77,0.005-13.539,0.076-20.309,0.169c-13.537,0.191-27.074,0.477-40.61,0.794
			c-27.071,0.639-54.14,1.429-81.207,2.212c-54.136,1.604-108.265,3.397-162.39,5.318l-0.039,0.001l-0.038-0.008L520.92,517.539
			l-180.268-38.427l0.088,0.007l-170.645,10.07l0.092-0.024L0.757,572.82z"/>
		<path fill="#FFFFFF" d="M0.757,577.352l170.36-78.509l0.041-0.019l0.045-0.003l170.317-9.581l0.041-0.003l0.042,0.009
			l180.242,35.703l180.207,35.889l-0.071-0.006c54.021-1.735,108.046-3.352,162.076-4.79c27.015-0.726,54.032-1.353,81.052-1.868
			c13.51-0.254,27.021-0.479,40.532-0.614c6.757-0.065,13.513-0.111,20.269-0.095c3.378,0.011,6.756,0.035,10.134,0.104
			c1.688,0.035,3.378,0.081,5.064,0.158c0.844,0.039,1.688,0.086,2.529,0.156c0.421,0.035,0.842,0.076,1.26,0.134
			c0.209,0.028,0.418,0.062,0.624,0.108c0.104,0.022,0.207,0.048,0.305,0.086c0.088,0.037,0.228,0.076,0.219,0.195
			c0.009-0.119-0.131-0.157-0.219-0.195c-0.099-0.037-0.202-0.062-0.305-0.084c-0.206-0.046-0.415-0.078-0.624-0.106
			c-0.419-0.057-0.839-0.096-1.261-0.13c-0.842-0.067-1.686-0.111-2.528-0.147c-1.688-0.072-3.376-0.112-5.065-0.142
			c-3.377-0.059-6.755-0.071-10.133-0.07c-6.756,0.004-13.512,0.072-20.267,0.16c-13.511,0.18-27.021,0.447-40.528,0.744
			c-27.018,0.6-54.031,1.34-81.045,2.071c-54.027,1.499-108.051,3.175-162.068,4.971l-0.036,0.001l-0.035-0.007l-180.245-35.687
			l-180.21-35.871l0.083,0.006l-170.327,9.393l0.087-0.021L0.757,577.352z"/>
		<path fill="#FFFFFF" d="M0.757,581.883l171.502-72.92l0.039-0.016l0.042-0.002l170-8.904l0.039-0.002l0.038,0.007L522.6,533.193
			l180.148,33.331l-0.066-0.005c53.916-1.609,107.833-3.108,161.755-4.442c26.961-0.673,53.925-1.252,80.89-1.728
			c13.482-0.233,26.966-0.439,40.45-0.564c6.741-0.061,13.483-0.102,20.227-0.085c3.371,0.01,6.742,0.032,10.113,0.097
			c1.685,0.033,3.37,0.076,5.055,0.148c0.842,0.036,1.684,0.079,2.524,0.145c0.42,0.033,0.84,0.07,1.258,0.124
			c0.209,0.026,0.418,0.058,0.625,0.1c0.103,0.021,0.206,0.045,0.306,0.079c0.087,0.036,0.23,0.065,0.229,0.184
			c0.002-0.118-0.142-0.146-0.229-0.183c-0.1-0.034-0.202-0.057-0.306-0.078c-0.206-0.042-0.415-0.072-0.624-0.098
			c-0.419-0.052-0.839-0.089-1.259-0.12c-0.841-0.062-1.683-0.103-2.524-0.137c-1.684-0.066-3.369-0.104-5.055-0.131
			c-3.371-0.053-6.742-0.065-10.112-0.064c-6.742,0.006-13.484,0.068-20.226,0.15c-13.482,0.169-26.965,0.419-40.446,0.697
			c-26.963,0.559-53.923,1.25-80.883,1.93c-53.919,1.394-107.835,2.953-161.747,4.623l-0.033,0.001l-0.033-0.006L522.45,534.03
			l-180.152-33.315l0.077,0.005l-170.009,8.716l0.081-0.02L0.757,581.883z"/>
		<path fill="#FFFFFF" d="M0.757,586.414l172.646-67.33l0.036-0.014l0.039-0.002l169.683-8.227l0.036-0.002l0.036,0.006
			l180.121,30.59l180.091,30.776l-0.062-0.005c53.809-1.483,107.618-2.865,161.433-4.094c26.907-0.621,53.816-1.151,80.727-1.586
			c13.456-0.215,26.911-0.403,40.368-0.517c6.729-0.055,13.457-0.092,20.186-0.075c3.365,0.01,6.729,0.031,10.093,0.091
			c1.682,0.03,3.364,0.07,5.045,0.137c0.84,0.034,1.681,0.074,2.52,0.134c0.419,0.03,0.839,0.065,1.257,0.114
			c0.209,0.024,0.418,0.053,0.624,0.092c0.104,0.02,0.206,0.041,0.307,0.072c0.088,0.034,0.233,0.055,0.239,0.171
			c-0.007-0.116-0.151-0.136-0.239-0.17c-0.101-0.031-0.204-0.052-0.308-0.071c-0.207-0.038-0.415-0.066-0.624-0.09
			c-0.418-0.048-0.837-0.081-1.257-0.11c-0.839-0.057-1.679-0.094-2.52-0.125c-1.681-0.062-3.363-0.096-5.044-0.121
			c-3.364-0.049-6.729-0.059-10.093-0.058c-6.729,0.006-13.456,0.064-20.184,0.142c-13.456,0.156-26.911,0.39-40.365,0.647
			c-26.908,0.519-53.814,1.162-80.721,1.789c-53.812,1.289-107.62,2.731-161.426,4.274l-0.031,0.002l-0.03-0.006l-180.124-30.574
			l-180.094-30.759l0.071,0.004l-169.691,8.037l0.075-0.016L0.757,586.414z"/>
		<path fill="#FFFFFF" d="M0.757,590.945l173.788-61.741l0.034-0.012l0.036-0.001l169.366-7.549l0.033-0.002l0.033,0.005
			l180.061,28.034l180.033,28.22l-0.057-0.004c53.701-1.357,107.404-2.622,161.111-3.745c26.853-0.57,53.708-1.051,80.564-1.446
			c13.428-0.194,26.856-0.366,40.285-0.468c6.715-0.049,13.43-0.082,20.145-0.066c3.357,0.01,6.715,0.03,10.072,0.085
			c1.679,0.029,3.357,0.065,5.035,0.126c0.838,0.031,1.678,0.068,2.515,0.123c0.419,0.028,0.838,0.061,1.255,0.104
			c0.209,0.022,0.417,0.049,0.624,0.084c0.104,0.018,0.207,0.038,0.308,0.065c0.088,0.033,0.234,0.045,0.248,0.158
			c-0.015-0.113-0.16-0.124-0.248-0.157c-0.101-0.027-0.205-0.047-0.309-0.064c-0.206-0.034-0.415-0.06-0.623-0.081
			c-0.418-0.044-0.836-0.074-1.256-0.101c-0.837-0.053-1.676-0.087-2.515-0.114c-1.678-0.057-3.356-0.088-5.034-0.11
			c-3.357-0.044-6.715-0.054-10.072-0.052c-6.715,0.006-13.429,0.061-20.143,0.132c-13.429,0.146-26.856,0.36-40.283,0.599
			l-80.559,1.648c-53.705,1.185-107.406,2.509-161.105,3.927l-0.028,0.001l-0.028-0.004l-180.063-28.018l-180.035-28.204
			l0.065,0.004l-169.374,7.359l0.069-0.014L0.757,590.945z"/>
		<path fill="#FFFFFF" d="M0.757,595.477l174.931-56.151l0.031-0.01l0.033-0.001l169.049-6.871l0.03-0.002l0.03,0.004
			l180.001,25.478l179.975,25.664l-0.052-0.003c53.595-1.232,107.191-2.379,160.79-3.398c26.8-0.518,53.601-0.949,80.402-1.305
			c13.401-0.175,26.803-0.328,40.205-0.419c6.701-0.043,13.401-0.072,20.103-0.057c3.351,0.009,6.701,0.028,10.052,0.079
			c1.676,0.025,3.35,0.06,5.024,0.115c0.837,0.028,1.675,0.062,2.511,0.112c0.418,0.024,0.836,0.054,1.253,0.095
			c0.208,0.02,0.417,0.044,0.624,0.076c0.104,0.016,0.207,0.033,0.309,0.059c0.088,0.032,0.233,0.035,0.257,0.146
			c-0.024-0.11-0.169-0.112-0.257-0.145c-0.103-0.024-0.205-0.042-0.309-0.058c-0.208-0.031-0.416-0.055-0.624-0.074
			c-0.417-0.039-0.835-0.066-1.253-0.091c-0.837-0.048-1.674-0.078-2.512-0.104c-1.674-0.051-3.349-0.078-5.023-0.1
			c-3.351-0.04-6.701-0.048-10.052-0.046c-6.7,0.007-13.401,0.058-20.102,0.123c-13.401,0.135-26.802,0.332-40.202,0.551
			l-80.397,1.507c-53.597,1.079-107.191,2.287-160.783,3.579l-0.026,0.001l-0.025-0.004l-180.004-25.461l-179.977-25.647l0.06,0.003
			l-169.057,6.682l0.063-0.011L0.757,595.477z"/>
		<path fill="#FFFFFF" d="M0.757,600.008l176.075-50.562l0.027-0.008l0.029-0.001l168.732-6.194l0.026-0.001l0.027,0.004
			l179.94,22.92l179.916,23.108l-0.046-0.003c53.488-1.105,106.978-2.135,160.469-3.049c26.746-0.466,53.493-0.85,80.241-1.165
			l40.122-0.37l20.062-0.047l10.031,0.072l5.015,0.105l2.506,0.101l1.251,0.085c0.208,0.019,0.416,0.04,0.623,0.068
			c0.192,0.046,0.448,0.025,0.575,0.185c-0.127-0.158-0.384-0.138-0.575-0.183c-0.207-0.027-0.415-0.049-0.624-0.065l-1.25-0.081
			l-2.507-0.094l-5.015-0.088l-10.03-0.04l-20.062,0.114l-40.12,0.501l-80.236,1.366c-53.489,0.976-106.978,2.064-160.463,3.231
			h-0.023l-0.023-0.003L525.51,567.012L345.591,543.92l0.054,0.002l-168.738,6.005l0.056-0.009L0.757,600.008z"/>
		<path fill="#FFFFFF" d="M0.757,604.539l177.217-44.972l0.025-0.007h0.026l168.415-5.517l0.024-0.001l0.024,0.003l179.879,20.364
			l179.859,20.552l-0.042-0.002c53.382-0.98,106.765-1.892,160.148-2.701c26.692-0.413,53.385-0.748,80.079-1.023l40.042-0.321
			l20.021-0.039l10.01,0.066l5.005,0.095l2.501,0.09l1.249,0.076l0.623,0.061c0.194,0.041,0.442,0.021,0.584,0.164
			c-0.142-0.143-0.39-0.122-0.584-0.162l-0.623-0.058l-1.249-0.072l-2.501-0.082l-5.005-0.078l-10.01-0.033l-20.021,0.104
			l-40.039,0.452l-80.075,1.227c-53.382,0.87-106.763,1.842-160.143,2.883h-0.021l-0.021-0.002l-179.881-20.349l-179.861-20.536
			l0.048,0.002l-168.421,5.327l0.05-0.007L0.757,604.539z"/>
		<path fill="#FFFFFF" d="M0.757,609.07l178.361-39.382l0.021-0.005l0.022-0.001l168.098-4.838l0.021-0.001l0.021,0.002
			l179.819,17.809l179.801,17.995l-0.036-0.001l159.828-2.353c26.639-0.362,53.277-0.647,79.917-0.884l39.961-0.272l19.98-0.029
			l9.99,0.061l4.994,0.083l2.497,0.08l1.247,0.066l0.622,0.053c0.197,0.037,0.438,0.017,0.592,0.145
			c-0.155-0.127-0.396-0.106-0.592-0.143l-0.623-0.051l-1.246-0.062l-2.497-0.071l-4.994-0.066l-9.99-0.028l-19.98,0.096
			l-39.958,0.404l-79.914,1.086l-159.823,2.533h-0.019l-0.018-0.002L527.04,583.502l-179.803-17.979l0.042,0.001l-168.104,4.649
			l0.044-0.006L0.757,609.07z"/>
		<path fill="#FFFFFF" d="M0.757,613.602l179.504-33.792l0.019-0.004h0.02l167.781-4.161h0.019l0.018,0.002l179.758,15.251
			l179.744,15.44l-0.031-0.002l159.508-2.004c26.584-0.31,53.17-0.546,79.756-0.742l39.88-0.224l19.94-0.021l9.97,0.054l4.984,0.073
			l2.491,0.068l1.245,0.058c0.405,0.044,0.85,0.011,1.22,0.169c-0.37-0.156-0.814-0.123-1.22-0.165l-1.245-0.054l-2.492-0.061
			l-4.984-0.056l-9.969-0.021l-19.939,0.086l-39.879,0.356l-79.753,0.944l-159.504,2.185l-0.016,0.001l-0.016-0.001l-179.761-15.236
			l-179.744-15.423l0.036,0.001l-167.786,3.972l0.038-0.004L0.757,613.602z"/>
		<path fill="#FFFFFF" d="M0.757,618.133l180.647-28.201l0.016-0.003l0.017-0.001l167.464-3.482h0.015l0.016,0.001l179.698,12.695
			l179.686,12.884l-0.025-0.001l159.188-1.655l79.596-0.602l39.799-0.176l19.899-0.012l9.95,0.049l4.975,0.062l2.486,0.058
			c0.821,0.05,1.674,0.006,2.468,0.189c-0.794-0.182-1.646-0.135-2.468-0.181l-2.487-0.05l-4.975-0.046l-9.949-0.015l-19.899,0.077
			l-39.797,0.307l-79.594,0.805l-159.184,1.836h-0.014l-0.014-0.001L528.57,599.991l-179.687-12.866h0.03l-167.468,3.294
			l0.031-0.003L0.757,618.133z"/>
		<path fill="#FFFFFF" d="M0.757,622.664l181.791-22.611l0.012-0.002h0.013l167.147-2.805l0.012-0.001l0.012,0.001l169.126,9.536
			l169.12,9.723l21.139,1.207l21.165-0.188l42.347-0.364l84.694-0.675l84.696-0.516l42.349-0.146l21.175-0.009l10.587,0.039
			l5.293,0.052l2.646,0.047c0.877,0.041,1.775,0.005,2.635,0.156c-0.86-0.148-1.758-0.109-2.635-0.146l-2.646-0.039l-5.293-0.034
			l-10.587-0.005l-21.174,0.08l-42.348,0.285l-84.694,0.714l-84.693,0.771l-42.347,0.412l-21.182,0.213l-21.144-1.183l-169.138-9.53
			l-169.13-9.719h0.024l-167.15,2.617l0.025-0.002L0.757,622.664z"/>
		<path fill="#FFFFFF" d="M0.757,627.195l182.934-17.021l0.009-0.001h0.01l105.424-1.345l52.712-0.672
			c8.789-0.327,17.562,0.319,26.342,0.632l26.333,1.109l210.668,8.98l105.325,4.517l105.425-0.657l105.426-0.532l52.713-0.145
			l26.357-0.019l13.178,0.027l6.589,0.04c2.193,0.042,4.4-0.006,6.582,0.167c-2.183-0.166-4.389-0.11-6.582-0.146l-6.589-0.019
			l-13.178,0.016l-26.356,0.107l-52.713,0.318l-105.424,0.708l-105.424,0.778l-105.342-4.397L394.51,610.63l-26.333-1.14
			c-8.779-0.322-17.553-0.979-26.34-0.662l-52.707,0.613l-105.415,1.225l0.019-0.001L0.757,627.195z"/>
		<path fill="#FFFFFF" d="M0.757,631.727l128.083-7.992l32.023-1.969l16.012-0.981l8.006-0.488l8.021-0.07l64.162-0.559
			l64.164-0.559l16.041-0.14l8.021-0.069l4.011-0.035l2.005-0.018l2.004,0.054l32.068,0.896l128.272,3.58l128.271,3.725
			l64.136,1.863l4.009,0.116c1.326,0.016,2.67-0.005,4.005-0.006l8.02-0.034l16.04-0.066l32.081-0.129l128.32-0.458l64.161-0.103
			l32.081-0.012l16.04,0.021c5.345,0.037,10.696-0.019,16.037,0.154c-5.341-0.155-10.692-0.081-16.037-0.102l-16.04,0.032
			l-32.08,0.117l-64.16,0.315l-128.32,0.61l-32.08,0.166l-16.04,0.084l-8.021,0.043c-1.338,0.002-2.668,0.025-4.015,0.011
			l-4.009-0.112l-64.136-1.789l-128.272-3.582l-128.27-3.727l-32.068-0.932l-2.004-0.055l-2.005,0.015l-4.009,0.03l-8.019,0.061
			l-16.039,0.121l-64.154,0.486l-64.155,0.486l-8.02,0.061l-8.006,0.479l-16.011,0.964l-32.023,1.923L0.757,631.727z"/>
		<path fill="#FFFFFF" d="M0.757,636.258l128.224-4.082l32.057-0.99l16.029-0.493l8.014-0.246c2.672-0.06,5.345-0.038,8.018-0.062
			l64.144-0.297l64.145-0.299l32.072-0.125l32.068,0.438l128.273,1.755l128.272,1.898l64.136,0.949
			c5.345,0.121,10.686,0.045,16.033,0.053l16.035-0.029l32.071-0.055c85.523-0.13,171.047-0.357,256.57-0.056
			c-21.38-0.096-42.762,0.037-64.143,0.077l-64.142,0.211L770.35,635.25l-32.071,0.092l-16.036,0.048
			c-5.343-0.001-10.693,0.08-16.037-0.034l-64.137-0.877l-128.272-1.756l-128.272-1.899l-32.067-0.476l-32.07,0.09l-64.14,0.225
			l-64.14,0.226c-2.672,0.02-5.345-0.005-8.017,0.052l-8.014,0.237l-16.028,0.475l-32.057,0.946L0.757,636.258z"/>
		<polygon fill="#FFFFFF" points="0.757,640.789 257.314,640.501 513.871,640.355 770.428,640.5 1026.984,640.789 770.428,641.077 
			513.871,641.222 257.314,641.076 		"/>
	</g>
</g>
<g id="Words">
</g>
</svg>
