<?xml version="1.0" encoding="utf-8"?>
<!-- Generator: Adobe Illustrator 16.0.0, SVG Export Plug-In . SVG Version: 6.00 Build 0)  -->
<!DOCTYPE svg PUBLIC "-//W3C//DTD SVG 1.1//EN" "http://www.w3.org/Graphics/SVG/1.1/DTD/svg11.dtd">
<svg version="1.1" id="Layer_6" xmlns="http://www.w3.org/2000/svg" xmlns:xlink="http://www.w3.org/1999/xlink" x="0px" y="0px"
	 width="635.113px" height="609.688px" viewBox="0 0 635.113 609.688" enable-background="new 0 0 635.113 609.688"
	 xml:space="preserve">
<path stroke-width="0.25" stroke-miterlimit="10" d="M241.876,609.583
	C446.61,473.905,571.062,312.03,521.062,228.029c-52.871-88.824-249-75-500,55"/>
<path stroke-width="0.25" stroke-miterlimit="10" d="M227.062,572.03
	c214-134,333.304-264.539,289.066-341.917c-40.066-70.083-179.066-70.083-465.066,86.917"/>
<path stroke-width="0.25" stroke-miterlimit="10" d="M197.062,562.03
	c219-121,357.857-248.02,317-327.001c-30.105-58.197-155-84-484,123.001"/>
<line stroke-width="0.25" stroke-miterlimit="10" x1="49.062" y1="381.03" x2="602.062" y2="198.029"/>
<line stroke-width="0.25" stroke-miterlimit="10" x1="174.062" y1="549.03" x2="591.062" y2="120.029"/>
<line stroke-width="0.25" stroke-miterlimit="10" x1="622.062" y1="396.03" x2="253.062" y2="12.029"/>
<line stroke-width="0.25" stroke-miterlimit="10" x1="415.062" y1="20.029" x2="557.062" y2="562.03"/>
<line stroke-width="0.25" stroke-miterlimit="10" x1="596.062" y1="271.029" x2="8.062" y2="124.029"/>
<line stroke-width="0.25" stroke-miterlimit="10" x1="512.062" y1="550.03" x2="48.062" y2="180.029"/>
<line stroke-width="0.25" stroke-miterlimit="10" x1="441.062" y1="550.03" x2="33.062" y2="298.03"/>
<line stroke-width="0.25" stroke-miterlimit="10" x1="421.062" y1="553.03" x2="28.062" y2="306.03"/>
<line stroke-width="0.25" stroke-miterlimit="10" x1="532.062" y1="545.03" x2="144.062" y2="28.029"/>
<line stroke-width="0.25" stroke-miterlimit="10" x1="448.062" y1="24.029" x2="635.062" y2="109.029"/>
<line stroke-width="0.25" stroke-miterlimit="10" x1="485.062" y1="12.029" x2="600.062" y2="156.029"/>
<line stroke-width="0.25" stroke-miterlimit="10" x1="506.062" y1="0.029" x2="582.062" y2="314.03"/>
<line stroke-width="0.25" stroke-miterlimit="10" x1="428.062" y1="31.029" x2="624.062" y2="84.029"/>
<line stroke-width="0.25" stroke-miterlimit="10" x1="313.062" y1="10.029" x2="585.062" y2="237.029"/>
<line stroke-width="0.25" stroke-miterlimit="10" x1="243.062" y1="14.029" x2="604.062" y2="536.03"/>
<line stroke-width="0.25" stroke-miterlimit="10" x1="600.062" y1="249.029" x2="28.062" y2="215.029"/>
<line stroke-width="0.25" stroke-miterlimit="10" x1="601.062" y1="459.03" x2="339.062" y2="9.029"/>
<line stroke-width="0.25" stroke-miterlimit="10" x1="588.062" y1="175.029" x2="0.062" y2="507.03"/>
<circle cx="261.562" cy="187.529" r="5.5"/>
<circle cx="473.062" cy="241.029" r="5.5"/>
<circle cx="378.062" cy="336.03" r="5.5"/>
<circle cx="193.062" cy="397.03" r="5.5"/>
<circle cx="331.062" cy="480.03" r="5.5"/>
<circle cx="519.062" cy="409.03" r="5.5"/>
<circle cx="557.062" cy="214.029" r="5.5"/>
<circle cx="522.062" cy="57.029" r="5.5"/>
<circle cx="351.062" cy="172.029" r="5.5"/>
<circle cx="410.062" cy="260.029" r="5.5"/>
<circle cx="478.062" cy="354.03" r="5.5"/>
<circle cx="450.562" cy="435.03" r="5.5"/>
<circle cx="373.062" cy="508.03" r="5.5"/>
<circle cx="225.062" cy="323.03" r="5.5"/>
<circle cx="151.062" cy="264.029" r="5.5"/>
<circle cx="300.062" cy="232.029" r="5.5"/>
<circle cx="525.562" cy="186.029" r="5.5"/>
<circle cx="528.062" cy="299.53" r="5.5"/>
<circle cx="319.062" cy="398.03" r="5.5"/>
<circle cx="521.354" cy="321.831" r="1.805"/>
<circle cx="519.729" cy="252.029" r="1.805"/>
<circle cx="503.729" cy="221.696" r="1.805"/>
<circle cx="504.729" cy="208.029" r="1.805"/>
<circle cx="565.062" cy="246.696" r="1.805"/>
<circle cx="419.396" cy="269.696" r="1.805"/>
<circle cx="427.396" cy="194.363" r="1.805"/>
<circle cx="457.729" cy="181.363" r="1.805"/>
<circle cx="440.458" cy="116.58" r="1.805"/>
<circle cx="436.534" cy="176.029" r="1.805"/>
<circle cx="546.2" cy="166.029" r="1.805"/>
<circle cx="407.062" cy="172.363" r="1.805"/>
<circle cx="364.062" cy="189.696" r="1.805"/>
<circle cx="384.062" cy="217.696" r="1.805"/>
<circle cx="397.062" cy="237.696" r="1.805"/>
<circle cx="522.062" cy="244.029" r="1.805"/>
<circle cx="514.396" cy="217.029" r="1.805"/>
<circle cx="519.729" cy="225.696" r="1.805"/>
<circle cx="446.729" cy="195.029" r="1.805"/>
<circle cx="430.062" cy="285.03" r="1.805"/>
<circle cx="353.729" cy="307.362" r="1.805"/>
<circle cx="126.062" cy="355.03" r="1.805"/>
<circle cx="111.062" cy="359.03" r="1.805"/>
<circle cx="400.062" cy="369.835" r="1.805"/>
<circle cx="538.866" cy="492.03" r="1.805"/>
<circle cx="462.062" cy="512.226" r="1.805"/>
<circle cx="364.433" cy="53.303" r="1.805"/>
<circle cx="340.086" cy="102.967" r="1.805"/>
<circle cx="184.755" cy="82.186" r="1.805"/>
<circle cx="337.062" cy="285.363" r="1.805"/>
<circle cx="267.396" cy="355.696" r="1.805"/>
<circle cx="183.062" cy="403.696" r="1.805"/>
<circle cx="273.062" cy="445.226" r="1.805"/>
<circle cx="344.257" cy="490.03" r="1.805"/>
<circle cx="334.866" cy="498.03" r="1.805"/>
<circle cx="392.062" cy="455.835" r="1.805"/>
<circle cx="424.866" cy="411.03" r="1.805"/>
<circle cx="498.866" cy="340.03" r="1.805"/>
<circle cx="504.062" cy="359.835" r="1.805"/>
<circle cx="568.866" cy="265.029" r="1.805"/>
<circle cx="553.062" cy="375.03" r="1.805"/>
<circle cx="556.257" cy="468.03" r="1.805"/>
<circle cx="351.866" cy="421.03" r="1.805"/>
<circle cx="292.062" cy="301.226" r="1.805"/>
<circle cx="238.396" cy="227.642" r="1.805"/>
<circle cx="169.062" cy="277.03" r="1.805"/>
<circle cx="154.062" cy="223.029" r="1.805"/>
<circle cx="119.146" cy="236.69" r="1.805"/>
<circle cx="496.456" cy="330.55" r="1.805"/>
<circle cx="511.3" cy="305.022" r="1.805"/>
</svg>
