<?xml version="1.0" encoding="utf-8"?>
<!-- Generator: Adobe Illustrator 16.0.0, SVG Export Plug-In . SVG Version: 6.00 Build 0)  -->
<!DOCTYPE svg PUBLIC "-//W3C//DTD SVG 1.1//EN" "http://www.w3.org/Graphics/SVG/1.1/DTD/svg11.dtd">
<svg version="1.1" id="Layer_1" xmlns="http://www.w3.org/2000/svg" xmlns:xlink="http://www.w3.org/1999/xlink" x="0px" y="0px"
	 width="841.9px" height="456.3px" viewBox="0 0 841.9 456.3" enable-background="new 0 0 841.9 456.3" xml:space="preserve">
<path fill="#627766" d="M398.8,169l47.3-25l44.7,12.5l57.3-51.5l19,10c0,0,53-23,61-26s59-60,59-60l19,7l68-26l67.801,5v441.3H0V0
	l94.1,15l67,70l28,1l89.9,69l24.1-2l36,11l55.301,5H398.8z"/>
<path fill="#4D655C" d="M94.1,15l58,104.5l88,93.5h31c0,0-36-20-40-22s-70-106-70-106L94.1,15z"/>
<polygon fill="#4D655C" points="189.1,86 238.1,147.5 302.1,195 285.1,169 279,155 "/>
<polygon fill="#3A5048" points="137.4,240 141.4,229.3 144.1,244.701 150.1,232 150.1,246.701 157.1,238 157.1,251.701 161.4,244.3 
	161.4,251.701 171.8,240.5 169.4,260 178.8,251 178.8,257.701 186.1,252.701 182.6,268 189.1,261.701 190.2,270 195.1,262.3 
	193.7,275.3 182.6,271.701 "/>
<polygon fill="#3A5048" points="473.4,245 476.1,222.3 480.1,241 483.8,226.3 487.2,237.6 493.4,213 496.1,226.7 498.1,220 
	503.4,226 509.4,213 512.1,225.7 518.1,208.7 523.2,220.7 528.1,213 530.4,226.8 "/>
<polygon fill="#4D655C" points="303.1,153 327.7,173 352.1,173 339.1,164 "/>
<path fill="#4D655C" d="M0,39.8L62.1,190l135,87.5h-49L136.3,295c0,0-77.2-70-77.2-74S0,72,0,72V39.8z"/>
<polygon fill="#4D655C" points="774.1,10 699.1,114 549.1,228.1 429,259 554.4,213 688.1,86 706.1,36 "/>
<polygon fill="#4D655C" points="628.1,89 585.1,134.5 498.1,188 567.1,115 "/>
<polygon fill="#4D655C" points="490.8,156.5 447.1,195 352.1,241 341.1,228.1 441,188 "/>
<polygon fill="#4D655C" points="446.1,144 412.1,173 378.1,183.3 387.1,173 398.8,169 "/>
<polygon fill="#8D9C89" points="0,370.201 115.1,340 136.3,295 148.1,277.5 197.1,277.5 219.1,241 271.1,228.1 240.1,213 271.1,213 
	289.1,195 302.1,195 327.7,173 352.1,173 394.4,169 387.1,173 382.1,182.7 364.4,185.3 360.8,198.8 364.1,208.7 343.4,234 
	361.1,247.3 416,255 429,275.701 397.4,324.3 496.4,373 500.8,399 458.1,456.3 0,456.3 "/>
<polygon fill="#4D655C" points="841.9,102.6 743.7,241 628.1,336.6 523.2,392 628.1,379.3 774.1,241 841.9,120.1 "/>
<path fill="#B8CCB3" d="M394.4,169c0,0-7-0.3-13.301,9.3c-3.5,5.4-18-0.7-25,10.7c-5.8,9.4,7,14-14,26s-24,39,24.5,39
	s63.5,24,46.5,32s-75,40.201-14,58.101s91,42.3,57,56.101c-34,13.799-67,26.398-67,56.1h118c0,0-7-19.301,24-34.301s31-46,0-65
	s-98-28-102-40s21-21,21-53s-96-21-96-31c0-10,18-16,18-29s-9.699-19.3,4.7-17.3c14.4,2,3.3-13,22-17.7H394.4z"/>
<polygon fill="#3A5048" points="0,456.3 0,400.201 44.1,285 58.1,424 98.6,326 113.1,429 138.1,364 151.1,423 197.1,323 206.1,432 
	250.4,353 259.1,450 294.1,383 302.1,451 320.1,420 327.6,456.3 "/>
<polygon fill="#3A5048" points="841.9,403.599 826.7,364 813.7,423 767.7,323 758.7,432 714.4,353 705.7,450 670.7,383 662.7,451 
	644.7,420 637.2,456.3 841.9,456.3 "/>
</svg>
